Coordinates
version=1
nRows=21
nColumns=33
inDegrees=yes

Units are S.I. units (second, meters, Newtons, ...)
Angles are in degrees.

endheader
time	ground_thorax_rot_x	ground_thorax_rot_y	ground_thorax_rot_z	ground_thorax_tx	ground_thorax_ty	ground_thorax_tz	clav_prot_r	clav_elev_r	scapula_abduction_r	scapula_elevation_r	scapula_upward_rot_r	scapula_winging_r	shoulder_elv_r	plane_of_elev_r	axial_rot_r	elbow_flexion_r	pro_sup_r	wrist_flex_r	wrist_dev_r	clav_prot_l	clav_elev_l	scapula_abduction_l	scapula_elevation_l	scapula_upward_rot_l	scapula_winging_l	shoulder_elv_l	plane_of_elev_l	axial_rot_l	elbow_flexion_l	pro_sup_l	wrist_flex_l	wrist_dev_l
      3.82000000	     -1.55263676	      3.81295020	     10.59212314	     -0.10593161	      1.02819982	      0.01242312	     10.85150287	    -15.21112518	     20.51044642	     -8.92143005	      3.24962086	     -2.54092076	    -21.77819945	    -69.78179563	    111.95617471	    -75.38345882	   -177.14692901	     14.74166678	     -6.44968507	     16.75671040	     -6.38663992	    -24.17873679	    -14.31633662	    -32.98398446	      4.77796626	     59.39429849	    -16.10350384	      6.14853921	     56.52403959	     10.73445612	     17.86273485	    -12.10921421
      3.83000000	     -1.39025644	      3.57437844	     10.77815080	     -0.10669121	      1.02794543	      0.01249686	     10.61963089	    -14.61999505	     19.79170344	     -8.11689325	      2.56316954	     -2.58014869	    -22.58610498	    -70.48344334	    111.94082143	    -76.86518222	   -177.04740168	     15.27762448	     -6.58160270	     16.48691592	     -5.86382452	    -23.78741797	    -15.06497214	    -33.52119255	      4.51902058	     59.16841461	    -17.03723239	      6.29722993	     58.49354661	     10.46437220	     17.74683353	    -12.47333331
      3.84000000	     -1.33631809	      3.34649392	     10.76955021	     -0.10699329	      1.02872603	      0.01257810	     10.27818961	    -14.86906482	     18.76248601	     -7.98944219	      1.63891245	     -2.03986938	    -24.25409271	    -71.50135178	    110.54297132	    -78.18609110	   -176.40033793	     17.52455936	     -8.25168012	     15.85537580	     -5.71092485	    -22.70981108	    -15.30268351	    -33.63985029	      3.95612644	     59.51610911	    -18.72532067	      5.68698314	     60.44264969	     10.08085283	     16.99947573	    -12.92640335
      3.85000000	     -1.11075503	      3.16468203	     10.97005667	     -0.10779060	      1.02837403	      0.01270294	     10.01329068	    -14.19011820	     18.01413328	     -7.11052127	      0.98652500	     -2.09476113	    -25.10440079	    -72.30897482	    110.54495831	    -79.52915533	   -176.20052948	     18.09914954	     -8.43413862	     15.58372308	     -5.14730084	    -22.30521061	    -16.06972516	    -34.12838793	      3.68538355	     59.25111414	    -19.59360882	      5.59460234	     62.14811629	      9.90742228	     16.91838201	    -13.29090087
      3.86000000	     -1.07926538	      2.97185602	     10.88193338	     -0.10790124	      1.02912610	      0.01281687	      9.53562746	    -14.34370484	     16.90462754	     -7.00554982	      0.34055588	     -1.56686234	    -27.00521755	    -73.34877084	    109.08993324	    -80.38019349	   -174.81340633	     20.81063123	    -10.39152714	     14.84824251	     -4.81577685	    -21.00422074	    -16.36660722	    -34.01100016	      3.05407611	     59.59369320	    -21.22690945	      4.73564604	     63.82882265	      9.83204531	     16.14240151	    -14.15865183
      3.87000000	     -0.84570871	      2.74309014	     10.99885810	     -0.10859851	      1.02884310	      0.01296005	      9.27824177	    -13.64492776	     16.19145378	     -6.11621069	     -0.26843362	     -1.62701282	    -27.74476697	    -74.00669957	    109.07202836	    -81.54540352	   -174.57946255	     21.32728230	    -10.54658094	     14.59589031	     -4.29310708	    -20.62124161	    -17.09470455	    -34.48122060	      2.78552776	     59.31514903	    -22.12351497	      4.71792935	     65.30876112	      9.70040504	     16.06925557	    -14.51705506
      3.88000000	     -0.67569851	      2.64937198	     11.10256249	     -0.10877500	      1.02943718	      0.01300101	      8.88033457	    -13.54915450	     15.12321361	     -5.68116804	     -1.13055863	     -1.24064857	    -29.44987459	    -74.90808902	    107.56178384	    -82.05399040	   -172.64423597	     24.32750902	    -12.51194428	     13.88200041	     -3.99844188	    -19.33412114	    -17.33214876	    -34.30422073	      2.18231002	     59.52576857	    -23.72279407	      3.52407445	     66.57667034	      9.84342189	     15.30622885	    -15.75324027
      3.89000000	     -0.56807106	      2.32448262	     11.11764021	     -0.10945713	      1.02921705	      0.01306092	      8.63297811	    -12.96031508	     14.51632099	     -4.96815437	     -1.54496698	     -1.27076545	    -30.21931577	    -75.58224246	    107.65891005	    -82.82940703	   -172.34001206	     24.80670416	    -12.65313275	     13.64426168	     -3.42378840	    -18.96592889	    -18.10670643	    -34.76105432	      1.91029156	     59.27713093	    -24.71585407	      3.66160125	     68.00276795	      9.71816736	     15.19449733	    -16.14070820
      3.90000000	     -0.47629531	      2.14869475	     11.02925539	     -0.10938420	      1.02992450	      0.01295603	      8.16515196	    -12.90708325	     13.56132634	     -4.77783610	     -1.90674501	     -0.91768271	    -32.44795585	    -76.55076702	    105.86438600	    -82.71932253	   -169.29036058	     28.71691042	    -15.02438398	     12.78079264	     -2.95244474	    -17.33751472	    -18.37091274	    -34.26213320	      1.19958280	     59.54778241	    -26.35420602	      2.22193154	     69.00711976	     10.10739914	     14.05718026	    -18.04414861
      3.91000000	     -0.33049169	      1.89016989	     11.17294473	     -0.11002094	      1.02976588	      0.01299711	      7.94462409	    -12.23722253	     12.93777932	     -3.93275145	     -2.44469462	     -0.95582547	    -33.16224728	    -77.09720774	    105.86200062	    -83.16642952	   -168.98990420	     29.09590731	    -15.16299230	     12.53651868	     -2.46028500	    -16.94909061	    -19.08286554	    -34.73437723	      0.90815517	     59.26485090	    -27.37727901	      2.28198509	     70.12628597	     10.03934568	     13.95958661	    -18.39495635
      3.92000000	     -0.19691608	      1.68138151	     11.09192361	     -0.11007541	      1.03029154	      0.01294818	      7.64815508	    -12.01356645	     12.32869430	     -3.63431198	     -2.67106059	     -0.81432764	    -35.51667667	    -77.76934111	    103.81223465	    -82.72145568	   -165.39437510	     33.02604260	    -17.46020650	     11.72679283	     -1.97244560	    -15.39587943	    -19.38332356	    -34.27580685	      0.23851943	     59.54008384	    -28.91510763	      0.77253654	     70.81887139	     10.74519815	     12.70138743	    -20.61901691
      3.93000000	     -0.06911682	      1.42936202	     11.28137017	     -0.11072926	      1.03023720	      0.01292857	      7.46206481	    -11.38987434	     11.77058456	     -2.83734230	     -3.18646638	     -0.83709827	    -36.21590232	    -78.27052453	    103.80465803	    -82.75930127	   -165.08252901	     33.30935879	    -17.59524143	     11.50083125	     -1.52164021	    -15.02886334	    -20.06242981	    -34.75025123	     -0.05190028	     59.25039135	    -29.96412001	      0.81897297	     71.68537956	     10.72614245	     12.60489751	    -20.94070267
      3.94000000	      0.04457164	      1.19072901	     11.12538581	     -0.11070789	      1.03064570	      0.01292339	      7.24130660	    -11.03663578	     11.42261213	     -2.55696587	     -3.08371426	     -0.85216685	    -38.85211140	    -78.62344660	    101.47904833	    -81.96602401	   -160.91774585	     37.27038559	    -19.99104901	     10.72095236	     -1.00911827	    -13.49019660	    -20.34953366	    -34.20827793	     -0.68739193	     59.48878134	    -31.43105773	     -0.67865143	     72.08036219	     11.88892957	     11.17011134	    -23.55245237
      3.95000000	      0.28318755	      0.78709087	     11.25348373	     -0.11119309	      1.03106501	      0.01288959	      7.34559888	    -10.35692364	     11.65849243	     -2.01473701	     -2.87728996	     -1.21270870	    -41.79605917	    -78.86770881	     99.31698262	    -81.25868791	   -158.79490083	     38.39182094	    -21.34011317	     10.17373857	     -0.69189951	    -12.45992258	    -20.66952739	    -34.15660901	     -1.16089463	     59.31196092	    -32.79369948	     -1.37016272	     72.33414167	     12.64404703	     10.46565564	    -24.99999983
      3.96000000	      0.38395058	      0.51664799	     11.30902953	     -0.11149147	      1.03095953	      0.01291312	      7.48560724	     -9.76974360	     11.92226476	     -1.51974709	     -2.76513722	     -1.55449176	    -45.17788592	    -78.81397563	     96.36675097	    -80.53966825	   -155.51489111	     40.89556026	    -22.79592763	      9.63627038	     -0.19496319	    -11.40143718	    -21.15111590	    -34.06671955	     -1.65707697	     59.43385175	    -34.08171180	     -2.39876609	     72.95251518	     13.66939954	      9.40683989	    -24.99999983
      3.97000000	      0.51976351	      0.27245723	     11.42174397	     -0.11224922	      1.03103448	      0.01285048	      7.38121662	     -9.33498128	     11.55782068	     -0.96290792	     -3.12224224	     -1.53154095	    -45.73995264	    -79.09565104	     96.21030899	    -79.99394023	   -155.27443844	     40.99844732	    -22.90773161	      9.49887828	      0.11768961	    -11.20104469	    -21.70841397	    -34.56325018	     -1.87652968	     59.13940788	    -35.00798163	     -2.53912368	     73.27971680	     13.73052225	      9.31624188	    -24.99999983
      3.98000000	      0.63140666	      0.27994355	     11.35118172	     -0.11252009	      1.03133493	      0.01294383	      7.25242882	     -8.80836463	     11.49534492	     -0.67711796	     -2.66624164	     -1.72009304	    -48.74768778	    -78.87471862	     93.46178031	    -78.58965861	   -151.32006350	     44.27774334	    -24.87144318	      9.09450502	      0.50274368	    -10.37717038	    -22.01912340	    -34.36015270	     -2.23447977	     59.39138427	    -35.99174531	     -4.07368249	     73.37800139	     15.40295792	      7.39596288	    -24.99999983
      3.99000000	      0.66379793	      0.01089122	     11.46079132	     -0.11310173	      1.03124601	      0.01286251	      7.18538264	     -8.47646931	     11.21327009	     -0.22874156	     -2.99322684	     -1.70245350	    -49.33235226	    -79.08733385	     93.30831818	    -77.96962352	   -151.05881360	     44.32108270	    -24.98650989	      8.97135997	      0.79802737	    -10.19150112	    -22.55591532	    -34.84101587	     -2.45137175	     59.12484979	    -36.96966532	     -4.10019124	     73.60268489	     15.47917847	      7.25888596	    -24.99999983
      4.00000000	      0.81340074	      0.01560088	     11.39373353	     -0.11341437	      1.03127149	      0.01302003	      7.20663803	     -7.93364233	     11.42838646	      0.04605223	     -2.47834151	     -1.99606125	    -52.27291240	    -78.59606782	     90.20806627	    -76.60369119	   -147.39322807	     47.03802781	    -24.99999983	      8.65251686	      1.19517354	     -9.51083471	    -22.87598450	    -34.63392913	     -2.75239501	     59.15706542	    -37.72845773	     -5.43762360	     73.42028926	     17.41467426	      5.07976258	    -24.99999983
      4.01000000	      0.82608764	     -0.23204845	     11.50796538	     -0.11400938	      1.03134433	      0.01292139	      7.16831799	     -7.74142012	     11.23230851	      0.33646529	     -2.73795174	     -1.96273471	    -52.80093677	    -78.74763455	     90.02923380	    -75.77205655	   -147.28796316	     47.03959670	    -24.99999983	      8.55091611	      1.38252213	     -9.37641060	    -23.29714447	    -35.09924224	     -2.93512323	     58.89823670	    -38.60635714	     -5.46422642	     73.32486207	     17.52059207	      4.95602139	    -24.99999983
      4.02000000	      0.98139465	     -0.23305774	     11.41881417	     -0.11422893	      1.03138288	      0.01309921	      7.25490889	     -7.24941192	     11.72647661	      0.40315862	     -1.85536948	     -2.36899244	    -56.53327408	    -78.05246720	     86.25813613	    -74.17954411	   -144.51478469	     50.17809350	    -24.99999983	      8.25905773	      1.69094125	     -8.74624687	    -23.51507640	    -34.86479107	     -3.19272080	     58.80520412	    -39.22864974	     -6.57436368	     72.91575929	     19.92285412	      2.40614403	    -24.99999983
